# xmcd
# 
# Track frame offsets:
#     150
#     10442
#     28705
#     50510
#     72677
#     92892
#     110775
#     135080
#     157237
#     183350
#     207545
#     230335
#     255050
#     284577
# 
# Disc length: 3883
# 
# Revision: 25
# Processed by: cddbd v1.5.2PL0 Copyright (c) Steve Scherf et al.
# Submitted via: fre:ac v1.0.31
# 
DISCID=cd0f290e
DTITLE=高橋洋子 - ?refrain? The songs were inspired by "EVANGELION"
DYEAR=1997
DGENRE=J-song
TTITLE0=Prologue De Refrain
TTITLE1=残酷な天使のテーゼ
TTITLE2=希望の空へ
TTITLE3=予感
TTITLE4=幸せは罪の匂い
TTITLE5=FLY ME TO THE MOON
TTITLE6=Forbidden Gene
TTITLE7=LOVE ANTIQUE
TTITLE8=心よ原始に戻れ
TTITLE9=無限抱擁
TTITLE10=眩惑の海から
TTITLE11=魂のルフラン
TTITLE12=Epilogue de These
TTITLE13=FLY ME TO THE MOON (On the Street)
EXTD=Produced by Toshiyuki Ohmori YEAR: 1997
EXTT0=
EXTT1=
EXTT2=
EXTT3=
EXTT4=
EXTT5=
EXTT6=
EXTT7=
EXTT8=
EXTT9=
EXTT10=
EXTT11=
EXTT12=
EXTT13=
PLAYORDER=
